<svg width="24" height="24" viewBox="0 0 16 16" fill="none" xmlns="http://www.w3.org/2000/svg">
<path d="M14.8536 7.8965L8.35362 1.3965C8.15812 1.201 7.84212 1.201 7.64662 1.3965L1.14662 7.8965C0.951125 8.092 0.951125 8.408 1.14662 8.6035C1.34212 8.799 1.65812 8.799 1.85362 8.6035L8.00012 2.457L12.0071 6.464C12.0066 6.4765 12.0001 6.4875 12.0001 6.5V14H4.00012V9C4.00012 8.7235 3.77612 8.5 3.50012 8.5C3.22412 8.5 3.00012 8.7235 3.00012 9V14.5C3.00012 14.7765 3.22412 15 3.50012 15H12.5001C12.7766 15 13.0001 14.7765 13.0001 14.5V7.457L14.1466 8.6035C14.2441 8.701 14.3721 8.75 14.5001 8.75C14.6281 8.75 14.7561 8.701 14.8536 8.6035C15.0491 8.408 15.0491 8.092 14.8536 7.8965Z" fill="white"/>
</svg>
