<svg width="17" height="18" viewBox="0 0 17 18" fill="none" xmlns="http://www.w3.org/2000/svg">
<g clip-path="url(#clip0_234_586)">
<path d="M11.6593 9.18675C12.3351 8.38969 12.75 7.34006 12.75 6.1875C12.75 3.70631 10.8433 1.6875 8.5 1.6875C6.15666 1.6875 4.25 3.70631 4.25 6.1875C4.25 8.66869 6.15666 10.6875 8.5 10.6875C9.32609 10.6875 10.0953 10.4327 10.7488 9.999C13.0597 10.9209 14.6508 13.1602 14.8532 15.75H2.14731C2.28491 14.0068 3.05734 12.3812 4.31375 11.2213C4.53528 11.0171 4.55813 10.6622 4.36528 10.4276C4.17297 10.1936 3.83722 10.1689 3.61569 10.3731C1.99272 11.8704 1.0625 14.0349 1.0625 16.3125C1.0625 16.6236 1.3005 16.875 1.59375 16.875H15.4062C15.7 16.875 15.9375 16.6236 15.9375 16.3125C15.9375 13.2266 14.2481 10.4709 11.6593 9.18675ZM5.3125 6.1875C5.3125 4.32619 6.74209 2.8125 8.5 2.8125C10.2579 2.8125 11.6875 4.32619 11.6875 6.1875C11.6875 8.04881 10.2579 9.5625 8.5 9.5625C6.74209 9.5625 5.3125 8.04881 5.3125 6.1875Z" fill="white"/>
</g>
<defs>
<clipPath id="clip0_234_586">
<rect width="17" height="18" fill="white"/>
</clipPath>
</defs>
</svg>
